<?xml version="1.0" encoding="utf-8"?>
<!-- Generator: Adobe Illustrator 16.0.0, SVG Export Plug-In . SVG Version: 6.00 Build 0)  -->
<!DOCTYPE svg PUBLIC "-//W3C//DTD SVG 1.1//EN" "http://www.w3.org/Graphics/SVG/1.1/DTD/svg11.dtd">
<svg version="1.1" id="Layer_1" xmlns="http://www.w3.org/2000/svg" xmlns:xlink="http://www.w3.org/1999/xlink" x="0px" y="0px"
	 width="832.295px" height="185.278px" viewBox="0 0 832.295 185.278" enable-background="new 0 0 832.295 185.278"
	 xml:space="preserve">
<g>
	<g>
		<g>
			<defs>
				
					<rect id="SVGID_1_" x="316.316" y="24.831" transform="matrix(0.7111 -0.7031 0.7031 0.7111 51.9373 280.7736)" width="102.611" height="104.713"/>
			</defs>
			<clipPath id="SVGID_2_">
				<use xlink:href="#SVGID_1_"  overflow="visible"/>
			</clipPath>
			<path clip-path="url(#SVGID_2_)" fill="#377AC0" d="M396.429,77.693l0.18-32.514c0.093-15.438-12.461-28.135-27.904-28.222
				C353.27,16.87,340.57,29.43,340.48,44.862l-0.176,32.514L396.429,77.693z M396.429,77.693"/>
			<path clip-path="url(#SVGID_2_)" fill="#D4D7DE" d="M340.303,77.425l-0.187,32.017c-0.082,15.438,12.474,28.133,27.903,28.222
				c15.438,0.092,28.14-12.468,28.225-27.906l0.184-32.016L340.303,77.425z M340.303,77.425"/>
		</g>
		<path fill="#3E8CCC" d="M385.877,77.682l0.243-42.439c0.008-1.455-1.168-2.646-2.611-2.646c-0.729-0.003-1.393,0.29-1.868,0.76
			c-0.479,0.476-0.778,1.134-0.783,1.859l-0.239,42.442L385.877,77.682z M385.877,77.682"/>
		<path fill="#F5F7FC" d="M380.622,77.651l-0.226,39.418c-0.009,1.455,1.164,2.643,2.611,2.643c1.456,0.009,2.641-1.164,2.65-2.619
			l0.22-39.412L380.622,77.651z M380.622,77.651"/>
	</g>
	<g>
		<path fill="#FFC10E" d="M395.799,50.529"/>
		<path fill="#333333" d="M354.983,49.382c0,2.313-1.887,4.188-4.217,4.188c-2.331,0-4.218-1.875-4.218-4.188
			c0-2.312,1.887-4.185,4.218-4.185C353.097,45.198,354.983,47.07,354.983,49.382L354.983,49.382z M354.983,49.382"/>
		<path fill="#333333" d="M391.803,49.382c0,2.313-1.888,4.188-4.217,4.188c-2.33,0-4.219-1.875-4.219-4.188
			c0-2.312,1.889-4.185,4.219-4.185C389.915,45.198,391.803,47.07,391.803,49.382L391.803,49.382z M391.803,49.382"/>
		<path fill="#333333" d="M378.208,59.515c-4.625,6.789-12.068,6.735-16.655-0.101c-0.655-0.977-1.687,0.514-1.031,1.487
			c5.131,7.65,13.55,7.69,18.718,0.102C379.899,60.035,378.871,58.545,378.208,59.515L378.208,59.515z M378.208,59.515"/>
	</g>
</g>
<text transform="matrix(1 0 0 1 0 135.9985)" fill="#FFFFFF" font-family="'NexaBold'" font-size="160">Med</text>
<text transform="matrix(1 0 0 1 411.1792 135.9985)" fill="#FFFFFF" font-family="'NexaBold'" font-size="160">Modo</text>
</svg>
